<svg xmlns="http://www.w3.org/2000/svg" xmlns:xlink="http://www.w3.org/1999/xlink" version="1.1" style="enable-background:new 0 0 373.086 373.086;" xml:space="preserve" width="250.33333333333337" height="250.33333333333348"><rect id="backgroundrect" width="100%" height="100%" x="0" y="0" fill="none" stroke="none" class="" style=""/>
















<g class="currentLayer" style=""><title>Layer 1</title><path d="M67.68086636257172,117.57386322442069 l17.834070048332215,-41.893281616210935 c4.7971433434486395,-11.266251586914063 13.425557738304137,-26.244625732421873 32.88462905073166,-26.244625732421873 h13.6195376496315 c19.461756155490875,0 28.088828128814697,14.978374145507814 32.88462905073166,26.244625732421873 l17.83541246986389,41.893281616210935 c1.3095322041511537,3.0761624755859374 -0.1161194624900818,6.634847045898438 -3.1842238731384276,7.948491577148437 c-3.06609077835083,1.3149904785156252 -6.617466940402984,-0.11575146484375001 -7.927670355319977,-3.1925869140625 l-17.83541246986389,-41.893281616210935 c-5.710661195755004,-13.415056396484376 -12.018699973106383,-18.88633203125 -21.772734822273257,-18.88633203125 h-13.6195376496315 c-9.752692427635193,0 -16.060731204986574,5.471948608398438 -21.772734822273257,18.887005004882813 l-17.834070048332215,41.892608642578125 c-0.9792965073585511,2.3008968505859375 -3.2117435145378113,3.6804927978515627 -5.558296351909638,3.6804927978515627 c-0.7913574929237366,0 -1.595467990398407,-0.1561298828125 -2.3687027926445006,-0.4879058837890626 C67.7969858250618,124.20871027031913 66.37133415842057,120.65002570000662 67.68086636257172,117.57386322442069 zM105.07133328437804,21.224901188287884 c0,-11.13367578125 9.034496908187867,-20.19190087890625 20.139007818222048,-20.19190087890625 c11.10383969926834,0 20.13766539669037,9.058225097656251 20.13766539669037,20.19190087890625 s-9.033825697422028,20.19190087890625 -20.13766539669037,20.19190087890625 C114.10583019256592,41.41680206719413 105.07133328437804,32.358576969537886 105.07133328437804,21.224901188287884 zM117.15312706947326,21.224901188287884 c0,4.454412475585937 3.614469974040985,8.07837548828125 8.057214033126831,8.07837548828125 c4.442072848320008,0 8.055871611595155,-3.623963012695312 8.055871611595155,-8.07837548828125 s-3.6137987632751467,-8.07837548828125 -8.055871611595155,-8.07837548828125 C120.76759704351426,13.146525700006634 117.15312706947326,16.770488712701948 117.15312706947326,21.224901188287884 zM250.41933978366853,244.66291486016289 c0,3.3453519287109375 -2.704308175563812,6.0567626953125 -6.040896892547607,6.0567626953125 H6.040896892547607 c-3.3365887169837953,0 -6.040896892547607,-2.7114107666015625 -6.040896892547607,-6.0567626953125 s2.704308175563812,-6.0567626953125 6.040896892547607,-6.0567626953125 h25.337535199642183 v-39.949733764648435 c0,-3.3453519287109375 2.704308175563812,-6.0567626953125 6.040896892547607,-6.0567626953125 h52.48599704551697 v-10.85102685546875 c0,-3.3453519287109375 2.704308175563812,-6.0567626953125 6.040896892547607,-6.0567626953125 h12.393906791210174 v-34.23214978027344 c0,-3.3453519287109375 2.704308175563812,-6.0567626953125 6.040896892547607,-6.0567626953125 s6.040896892547607,2.7114107666015625 6.040896892547607,6.0567626953125 v34.23214978027344 h9.574821574687958 v-34.23214978027344 c0,-3.3453519287109375 2.704308175563812,-6.0567626953125 6.040896892547607,-6.0567626953125 s6.040896892547607,2.7114107666015625 6.040896892547607,6.0567626953125 v34.23214978027344 h12.39524921274185 c3.3365887169837953,0 6.040896892547607,2.7114107666015625 6.040896892547607,6.0567626953125 v29.577191162109376 h52.48532583475112 c3.3365887169837953,0 6.040896892547607,2.7114107666015625 6.040896892547607,6.0567626953125 v21.223569458007812 h25.337535199642183 C247.7150316081047,238.60615216485039 250.41933978366853,241.31756293145193 250.41933978366853,244.66291486016289 zM89.90532603025436,204.71250812188165 H43.460225877285 v33.892971069335935 h46.44510015296936 V204.71250812188165 zM148.43289117908478,187.80471857110038 h-46.44510015296936 v50.80076062011718 h46.44510015296936 V187.80471857110038 zM206.9591139063835,223.43934540215508 h-46.444428942203515 v15.166806762695312 h46.444428942203515 V223.43934540215508 zM125.21034110260011,229.33459442559257 c3.3365887169837953,0 6.040896892547607,-2.7114107666015625 6.040896892547607,-6.0567626953125 v-20.144792724609374 c0,-3.3453519287109375 -2.704308175563812,-6.0567626953125 -6.040896892547607,-6.0567626953125 s-6.040896892547607,2.7114107666015625 -6.040896892547607,6.0567626953125 v20.144792724609374 C119.1694442100525,226.62318365899102 121.87375238561631,229.33459442559257 125.21034110260011,229.33459442559257 zM110.4349785141945,85.47503986016288 c-3.3365887169837953,0 -6.040896892547607,2.7114107666015625 -6.040896892547607,6.0567626953125 v28.41900354003906 c0,0 0,0 0,0.0006729736328125002 c0,3.3756357421875 2.756662615299225,6.112619506835937 6.131510345935822,6.056089721679688 h29.368827059268952 c0.030204484462738046,0.0006729736328125002 0.06040896892547609,0.0006729736328125002 0.09061345338821412,0.0006729736328125002 c3.3365887169837953,0 6.040896892547607,-2.7114107666015625 6.040896892547607,-6.0567626953125 v-28.419676513671874 c0,-3.3453519287109375 -2.704308175563812,-6.0567626953125 -6.040896892547607,-6.0567626953125 s-6.040896892547607,2.7114107666015625 -6.040896892547607,6.0567626953125 v22.36224084472656 h-17.467588970184327 v-22.36224084472656 C116.4758754067421,88.18645062676445 113.7715672311783,85.47503986016288 110.4349785141945,85.47503986016288 z" id="svg_1" class="" fill-opacity="1" fill="#f5f5f5"/><g id="svg_2">
</g><g id="svg_3">
</g><g id="svg_4">
</g><g id="svg_5">
</g><g id="svg_6">
</g><g id="svg_7">
</g><g id="svg_8">
</g><g id="svg_9">
</g><g id="svg_10">
</g><g id="svg_11">
</g><g id="svg_12">
</g><g id="svg_13">
</g><g id="svg_14">
</g><g id="svg_15">
</g><g id="svg_16">
</g></g></svg>