<svg xmlns="http://www.w3.org/2000/svg" xmlns:xlink="http://www.w3.org/1999/xlink" version="1.1" style="" xml:space="preserve" width="200.38759543212154" height="200.38759543212166"><rect id="backgroundrect" width="100%" height="100%" x="0" y="0" fill="none" stroke="none" class="" style=""/>
















<g class="currentLayer" style=""><title>Layer 1</title><path d="M53.85309344635136,93.33189073851945 l14.190418835606597,-33.17894948900873 c3.8170464214557907,-8.922728846050589 10.682602843425034,-20.785411835510473 26.16602145325081,-20.785411835510473 h10.836951019694899 c15.485554916763766,0 22.350043185264013,11.862682989459886 26.16602145325081,20.785411835510473 l14.19148698907559,33.17894948900873 c1.0419837090052115,2.43628179650542 -0.09239527506811976,5.25471499272521 -2.533660028457572,6.295104856382743 c-2.439662523185959,1.041455836878493 -5.265462525413828,-0.09167369700261045 -6.307980311153538,-2.5284884801185106 l-14.19148698907559,-33.17894948900873 c-4.543924857107298,-10.624555093314164 -9.56317800791764,-14.957736236518947 -17.3243811136397,-14.957736236518947 h-10.836951019694899 c-7.760134952253062,0 -12.779388103063406,4.333714129815264 -17.3243811136397,14.958269223129427 l-14.190418835606597,33.17841650239825 c-0.779217955632293,1.8222812212321224 -2.555557174571982,2.9149037727167233 -4.422689438376298,2.9149037727167233 c-0.6296764699729085,0 -1.2695003979012751,-0.12365289363142805 -1.8847567960427427,-0.3864152925982127 C53.94548872141947,98.58660573124466 52.81110973734615,95.76817253502486 53.85309344635136,93.33189073851945 zM83.6043720182859,17.02473070266636 c0,-8.81773048378597 7.188672846340414,-15.991730260850716 16.02443834187205,-15.991730260850716 c8.835231418797136,0 16.023370188403053,7.173999777064747 16.023370188403053,15.991730260850716 s-7.188138769605916,15.991730260850716 -16.023370188403053,15.991730260850716 C90.79304486462632,33.016460963517076 83.6043720182859,25.842461186452333 83.6043720182859,17.02473070266636 zM93.21775323924633,17.02473070266636 c0,3.5278383747690603 2.876003215270663,6.397971272205439 6.4110571209116145,6.397971272205439 c3.534519828906454,0 6.40998896744262,-2.8701328974363784 6.40998896744262,-6.397971272205439 s-2.8754691385361655,-6.397971272205439 -6.40998896744262,-6.397971272205439 C96.093756454517,10.626759430460924 93.21775323924633,13.496892327897303 93.21775323924633,17.02473070266636 zM199.25655256684695,193.9848131678914 c0,2.649476440697537 -2.1517951632916437,4.7968794943226385 -4.806690610480217,4.7968794943226385 H4.806690610480217 c-2.6548954471885735,0 -4.806690610480217,-2.1474030536251014 -4.806690610480217,-4.7968794943226385 s2.1517951632916437,-4.7968794943226385 4.806690610480217,-4.7968794943226385 h20.160862650557526 v-31.63968415794164 c0,-2.649476440697537 2.1517951632916437,-4.7968794943226385 4.806690610480217,-4.7968794943226385 h41.762664330790116 v-8.593876107384247 c0,-2.649476440697537 2.1517951632916437,-4.7968794943226385 4.806690610480217,-4.7968794943226385 h9.861726902501912 v-27.111429915301073 c0,-2.649476440697537 2.1517951632916437,-4.7968794943226385 4.806690610480217,-4.7968794943226385 s4.806690610480217,2.1474030536251014 4.806690610480217,4.7968794943226385 v27.111429915301073 h7.618604617611144 v-27.111429915301073 c0,-2.649476440697537 2.1517951632916437,-4.7968794943226385 4.806690610480217,-4.7968794943226385 s4.806690610480217,2.1474030536251014 4.806690610480217,4.7968794943226385 v27.111429915301073 h9.862795055970906 c2.6548954471885735,0 4.806690610480217,2.1474030536251014 4.806690610480217,4.7968794943226385 v23.424761530608887 h41.76213025405561 c2.6548954471885735,0 4.806690610480217,2.1474030536251014 4.806690610480217,4.7968794943226385 v16.808798734717005 h20.160862650557526 C197.10475740355528,189.18793367356875 199.25655256684695,191.33533672719383 199.25655256684695,193.9848131678914 zM71.53690820230807,162.34459602333928 H34.58093448199817 v26.842804663619003 h36.9559737203099 V162.34459602333928 zM118.10679722031291,148.95384042163238 h-36.9559737203099 v40.233560265325885 h36.9559737203099 V148.95384042163238 zM164.67561808484874,177.17601443317437 h-36.955439643575396 v12.011919240394366 h36.955439643575396 V177.17601443317437 zM99.62881036015797,181.84497714098174 c2.6548954471885735,0 4.806690610480217,-2.1474030536251014 4.806690610480217,-4.7968794943226385 v-15.954421198117094 c0,-2.649476440697537 -2.1517951632916437,-4.7968794943226385 -4.806690610480217,-4.7968794943226385 s-4.806690610480217,2.1474030536251014 -4.806690610480217,4.7968794943226385 v15.954421198117094 C94.82211974967775,179.69757408735666 96.97391491296939,181.84497714098174 99.62881036015797,181.84497714098174 zM87.87217920365785,67.91002837844091 c-2.6548954471885735,0 -4.806690610480217,2.1474030536251014 -4.806690610480217,4.7968794943226385 v22.5074915739723 c0,0 0,0 0,0.0005329866104802936 c0,2.6734608381691505 2.193453148582473,4.841117382992502 4.8787909696374205,4.796346507712158 h23.36852751795132 c0.0240334530524011,0.0005329866104802936 0.048066906104802194,0.0005329866104802936 0.0721003591572033,0.0005329866104802936 c2.6548954471885735,0 4.806690610480217,-2.1474030536251014 4.806690610480217,-4.7968794943226385 v-22.50802456058278 c0,-2.649476440697537 -2.1517951632916437,-4.7968794943226385 -4.806690610480217,-4.7968794943226385 s-4.806690610480217,2.1474030536251014 -4.806690610480217,4.7968794943226385 v17.71061207964966 h-13.898812938570797 v-17.71061207964966 C92.67886981413807,70.05743143206602 90.52707465084643,67.91002837844091 87.87217920365785,67.91002837844091 z" id="svg_1" class="" fill-opacity="1" fill="#f5f5f5"/><g id="svg_2">
</g><g id="svg_3">
</g><g id="svg_4">
</g><g id="svg_5">
</g><g id="svg_6">
</g><g id="svg_7">
</g><g id="svg_8">
</g><g id="svg_9">
</g><g id="svg_10">
</g><g id="svg_11">
</g><g id="svg_12">
</g><g id="svg_13">
</g><g id="svg_14">
</g><g id="svg_15">
</g><g id="svg_16">
</g></g></svg>