<svg xmlns="http://www.w3.org/2000/svg" xmlns:xlink="http://www.w3.org/1999/xlink" version="1.1" style="" xml:space="preserve" width="200.38759543212177" height="200.38759543212166"><rect id="backgroundrect" width="100%" height="100%" x="0" y="0" fill="none" stroke="none" class="" style=""/>
















<g class="currentLayer" style=""><title>Layer 1</title><g id="svg_1" class="selected" fill-opacity="1" fill="#f5f5f5">
	<g id="svg_2" fill="#f5f5f5">
		<path d="M187.08460237760264,107.13487036243451 v-18.63144907737752 c0,-3.243861373623275 -2.6067693623938544,-5.873722912161893 -5.822147176281687,-5.873722912161893 c-12.027779779907796,0 -23.241235241426324,1.0239856943535568 -33.83560238653357,3.1150310510831907 c-6.175745581454528,-6.016650169691165 -13.704558166676922,-10.382001038009884 -21.857504929196715,-12.767907284930045 c8.890030595037052,-7.548517105182987 14.549933936673021,-18.850734732764902 14.549933936673021,-31.4631841512864 c0,-22.88754869953003 -18.282706562959753,-41.50764191261071 -40.75503023397181,-41.50764191261071 c-22.47232367101206,0 -40.75503023397181,18.62009321308068 -40.75503023397181,41.50764191261071 c0,12.612449418521495 5.659903341635971,23.91466704610341 14.550322079818107,31.462792569758918 c-8.15294676251979,2.386297828447638 -15.681759347742181,6.751648696766357 -21.857504929196715,12.767907284930045 c-10.594367145107245,-2.090653775202157 -21.807822606625777,-3.1150310510831907 -33.83560238653357,-3.1150310510831907 c-3.2153778138878337,0 -5.822147176281687,2.629861538538618 -5.822147176281687,5.873722912161893 v18.63144907737752 c-6.776591170046798,2.4246728181404293 -11.644294352563374,8.953511625772112 -11.644294352563374,16.610888395593836 v11.747445824323785 c0,7.657376769821721 4.867703182516577,14.186215577453403 11.644294352563374,16.610888395593836 v18.63144907737752 c0,3.243861373623275 2.6067693623938544,5.873722912161893 5.822147176281687,5.873722912161893 c30.44167872590643,0 55.43926169884439,7.27675952511363 78.66885264591815,22.90007930840931 c1.9465378726035107,1.3086654648296698 4.5106114890379665,1.31179811704949 6.459090077366905,0 c23.22959094707376,-15.62331978329568 48.22678577686665,-22.90007930840931 78.66885264591815,-22.90007930840931 c3.2153778138878337,0 5.822147176281687,-2.629861538538618 5.822147176281687,-5.873722912161893 v-18.63144907737752 c6.776591170046798,-2.4246728181404293 11.644294352563374,-8.953511625772112 11.644294352563374,-16.610888395593836 v-11.747445824323785 C198.72889673016604,116.0883819882066 193.86119354764946,109.55954318057492 187.08460237760264,107.13487036243451 zM70.25351570688346,41.513637987761825 c0,-16.410007071997896 13.059076116399828,-29.76019608828692 29.110735881408438,-29.76019608828692 s29.110735881408438,13.35018901628903 29.110735881408438,29.76019608828692 c0,16.19385406883034 -13.059076116399828,29.368614560809466 -29.110735881408438,29.368614560809466 C83.31259182328327,70.88225254857129 70.25351570688346,57.70749205659216 70.25351570688346,41.513637987761825 zM17.466047975262825,141.366927494514 c-3.210331953001723,0 -5.822147176281687,-2.6349520983958254 -5.822147176281687,-5.873722912161893 v-11.747445824323785 c0,-3.238770813766068 2.6118152232799656,-5.873722912161893 5.822147176281687,-5.873722912161893 s5.822147176281687,2.6349520983958254 5.822147176281687,5.873722912161893 v11.747445824323785 C23.288195151544514,138.73197539611817 20.67637992826455,141.366927494514 17.466047975262825,141.366927494514 zM93.5421044120102,184.08259841939267 c-21.135558679337784,-12.194240347175565 -43.815927076115635,-18.357342008143306 -70.2539092604657,-19.13619766629597 v-12.842307775150761 c6.776591170046798,-2.4246728181404293 11.644294352563374,-8.953511625772112 11.644294352563374,-16.610888395593836 v-11.747445824323785 c0,-7.657376769821721 -4.867703182516577,-14.186215577453403 -11.644294352563374,-16.610888395593836 v-12.674710881390409 c27.356717008767305,0.7921694300869003 49.34619060729307,7.291248041630296 70.2539092604657,20.720928107997246 V184.08259841939267 zM99.36425158829189,105.00427527142963 c-10.746131114835654,-6.840537703503741 -21.931640269908034,-12.048963600481429 -33.87247598531669,-15.709076137813243 c6.561171724524376,-4.301914660867371 14.284832168579662,-6.665500760721316 22.228181632753312,-6.665500760721316 h23.28858870512675 c7.943349464173649,0 15.667009908228936,2.363586099853946 22.228181632753312,6.665500760721316 C121.29589185819992,92.9553116709482 110.10999455998248,98.16373756792589 99.36425158829189,105.00427527142963 zM175.4403080250393,164.9464007530967 c-26.437594041204974,0.778855658152667 -49.118738724273,6.943523645230312 -70.2539092604657,19.136980829350925 V115.18578656737107 c20.908106796317707,-13.430854810949382 42.896027822263136,-19.93384923776755 70.2539092604657,-20.725627086326973 v12.674710881390409 c-6.776591170046798,2.4246728181404293 -11.644294352563374,8.953511625772112 -11.644294352563374,16.610888395593836 v11.747445824323785 c0,7.657376769821721 4.867703182516577,14.186215577453403 11.644294352563374,16.610888395593836 V164.9464007530967 zM187.08460237760264,135.4932045823521 c0,3.238770813766068 -2.6118152232799656,5.873722912161893 -5.822147176281687,5.873722912161893 s-5.822147176281687,-2.6349520983958254 -5.822147176281687,-5.873722912161893 v-11.747445824323785 c0,-3.238770813766068 2.6118152232799656,-5.873722912161893 5.822147176281687,-5.873722912161893 s5.822147176281687,2.6349520983958254 5.822147176281687,5.873722912161893 V135.4932045823521 z" id="svg_3" fill="#f5f5f5"/>
	</g>
</g><g id="svg_4" class="">
</g><g id="svg_5" class="">
</g><g id="svg_6" class="">
</g><g id="svg_7" class="">
</g><g id="svg_8" class="">
</g><g id="svg_9" class="">
</g><g id="svg_10" class="">
</g><g id="svg_11" class="">
</g><g id="svg_12" class="">
</g><g id="svg_13" class="">
</g><g id="svg_14" class="">
</g><g id="svg_15" class="">
</g><g id="svg_16" class="">
</g><g id="svg_17" class="">
</g><g id="svg_18" class="">
</g></g></svg>