<svg xmlns="http://www.w3.org/2000/svg" xmlns:xlink="http://www.w3.org/1999/xlink" version="1.1" style="" xml:space="preserve" width="250.6666666666664" height="250.6666666666664"><rect id="backgroundrect" width="100%" height="100%" x="0" y="0" fill="none" stroke="none" class="" style=""/>
















<g class="currentLayer" style=""><title>Layer 1</title><g id="svg_1" class="" fill-opacity="1" fill="#f5f5f5">
	<g id="svg_2" fill="#f5f5f5">
		<path d="M235.97914528023233,133.23088159794995 v-23.169968624355697 c0,-4.034048341407369 -3.288048219458368,-7.304529831133575 -7.343764635478784,-7.304529831133575 c-15.171238568281105,0 -29.315329256213243,1.2734230338942867 -42.67853297123948,3.8738356537778396 c-7.789775941006862,-7.482273390357825 -17.286242783298995,-12.910999960856298 -27.569961194514455,-15.878099978262757 c11.213439014067072,-9.387294770317462 18.35255740837051,-23.442671071384687 18.35255740837051,-39.12744449345011 c0,-28.462830939995087 -23.06088970833048,-51.61867747334393 -51.40635244835149,-51.61867747334393 c-28.345462740021013,0 -51.40635244835149,23.155846533348843 -51.40635244835149,51.61867747334393 c0,15.684773422065422 7.139118394303442,29.74014972313265 18.353046992679545,39.1269575247947 c-10.283718411215457,2.967586986061867 -19.78018525350759,8.39631355656034 -27.569961194514455,15.878099978262757 c-13.363203715026229,-2.5999256512281437 -27.50729440295837,-3.8738356537778396 -42.67853297123948,-3.8738356537778396 c-4.0557164160204175,0 -7.343764635478784,3.270481489726206 -7.343764635478784,7.304529831133575 v23.169968624355697 c-8.547652451388272,3.0153099142919397 -14.687529270957569,11.134538305924613 -14.687529270957569,20.657210362445753 v14.60905966226715 c0,9.522672056521138 6.139876819569296,17.64190044815381 14.687529270957569,20.657210362445753 v23.169968624355697 c0,4.034048341407369 3.288048219458368,7.304529831133575 7.343764635478784,7.304529831133575 c38.39760777306437,0 69.92830602764704,9.049338523463682 99.22894775458933,28.478413936968174 c2.4552653097950734,1.6274492463765604 5.689459255259931,1.6313449956198323 8.147172486600164,0 c29.300641726942285,-19.429075413504492 60.83085039721593,-28.478413936968174 99.22894775458933,-28.478413936968174 c4.0557164160204175,0 7.343764635478784,-3.270481489726206 7.343764635478784,-7.304529831133575 v-23.169968624355697 c8.547652451388272,-3.0153099142919397 14.687529270957569,-11.134538305924613 14.687529270957569,-20.657210362445753 v-14.60905966226715 C250.6666745511899,144.36541990387454 244.52679773162063,136.24619151224186 235.97914528023233,133.23088159794995 zM88.61426826162473,51.62467432452563 c0,-20.40739544222098 16.472064077378917,-37.00961781107678 36.71882317739392,-37.00961781107678 s36.71882317739392,16.602222368855802 36.71882317739392,37.00961781107678 c0,20.138588744435268 -16.472064077378917,36.52264915566788 -36.71882317739392,36.52264915566788 C105.08633233900363,88.14732348019349 88.61426826162473,71.76326306896088 88.61426826162473,51.62467432452563 zM22.03080223328375,175.8016814537964 c-4.049351820003002,0 -7.343764635478784,-3.276812082246522 -7.343764635478784,-7.304529831133575 v-14.60905966226715 c0,-4.027717748887054 3.294412815475783,-7.304529831133575 7.343764635478784,-7.304529831133575 s7.343764635478784,3.276812082246522 7.343764635478784,7.304529831133575 v14.60905966226715 C29.374566868762535,172.52486937154987 26.08015405328675,175.8016814537964 22.03080223328375,175.8016814537964 zM117.98932680353987,228.9226572290768 c-26.659334379715084,-15.16469089808871 -55.2672143093772,-22.82909056556947 -88.61475993477734,-23.79767122117778 v-15.970624022790448 c8.547652451388272,-3.0153099142919397 14.687529270957569,-11.134538305924613 14.687529270957569,-20.657210362445753 v-14.60905966226715 c0,-9.522672056521138 -6.139876819569296,-17.64190044815381 -14.687529270957569,-20.657210362445753 v-15.762201438275437 c34.50639168487868,0.9851375898922148 62.24281154446398,9.067356363713811 88.61475993477734,25.768433369617615 V228.9226572290768 zM125.33309143901865,130.58128514387008 c-13.55463117985771,-8.506855441338162 -27.66347179753955,-14.984025526932006 -42.725043480597506,-19.535721549039042 c8.275933159875558,-5.3498376483222305 18.01817132530171,-8.289180452370381 28.037514209639934,-8.289180452370381 h29.375058541915138 c10.019342884338222,0 19.761581049764377,2.939342804048151 28.037514209639934,8.289180452370381 C152.9965632365582,115.59725961693806 138.88723303456734,122.0744297025319 125.33309143901865,130.58128514387008 zM221.29161600927478,205.124986007899 c-33.3470560410911,0.968580655608312 -61.955915139371285,8.634928197710703 -88.61475993477734,23.798645158488597 V143.24295715315702 c26.372437974622375,-16.70253791187003 54.10689949697156,-24.789626372245714 88.61475993477734,-25.77427699348252 v15.762201438275437 c-8.547652451388272,3.0153099142919397 -14.687529270957569,11.134538305924613 -14.687529270957569,20.657210362445753 v14.60905966226715 c0,9.522672056521138 6.139876819569296,17.64190044815381 14.687529270957569,20.657210362445753 V205.124986007899 zM235.97914528023233,168.4971516226628 c0,4.027717748887054 -3.294412815475783,7.304529831133575 -7.343764635478784,7.304529831133575 s-7.343764635478784,-3.276812082246522 -7.343764635478784,-7.304529831133575 v-14.60905966226715 c0,-4.027717748887054 3.294412815475783,-7.304529831133575 7.343764635478784,-7.304529831133575 s7.343764635478784,3.276812082246522 7.343764635478784,7.304529831133575 V168.4971516226628 z" id="svg_3" fill="#f5f5f5"/>
	</g>
</g><g id="svg_4" class="">
</g><g id="svg_5" class="">
</g><g id="svg_6" class="">
</g><g id="svg_7" class="">
</g><g id="svg_8" class="">
</g><g id="svg_9" class="">
</g><g id="svg_10" class="">
</g><g id="svg_11" class="">
</g><g id="svg_12" class="">
</g><g id="svg_13" class="">
</g><g id="svg_14" class="">
</g><g id="svg_15" class="">
</g><g id="svg_16" class="">
</g><g id="svg_17" class="">
</g><g id="svg_18" class="">
</g></g></svg>