<svg xmlns="http://www.w3.org/2000/svg" xmlns:xlink="http://www.w3.org/1999/xlink" version="1.1" style="" xml:space="preserve" width="201.4573652121776" height="201.05426407020826"><rect id="backgroundrect" width="100%" height="100%" x="0" y="0" fill="none" stroke="none" class="" style=""/>
















<g class="currentLayer" style=""><title>Layer 1</title><g id="svg_1" class="" fill-opacity="1" fill="#f5f5f5">
	<g id="svg_2" fill="#f5f5f5">
		<path d="M14.773951962568887,158.06845170827637 v37.9413453945634 c0,2.3082187312281914 1.588436789287281,4.231734340585019 3.5841650630072004,4.231734340585019 h24.844780550390816 c1.9549991252766545,0 3.5841650630072004,-1.8754277191229058 3.5841650630072004,-4.231734340585019 v-66.74599164468188 l-18.043012760365787,21.302935373626852 C24.915509924941542,155.0389146235394 20.028012111749906,157.6356606961711 14.773951962568887,158.06845170827637 z" id="svg_3" fill="#f5f5f5"/>
		<path d="M59.1687237657263,128.7829265558187 v67.22687054702108 c0,2.3082187312281914 1.588436789287281,4.231734340585019 3.5841650630072004,4.231734340585019 h24.844780550390816 c1.9549991252766545,0 3.5841650630072004,-1.8754277191229058 3.5841650630072004,-4.231734340585019 v-39.5763336625167 c-5.661351633613645,-0.14426367070176208 -10.956140931237917,-2.789097633567398 -14.947597478677757,-7.501710876491623 L59.1687237657263,128.7829265558187 z" id="svg_4" fill="#f5f5f5"/>
		<path d="M103.56349556888365,152.249816989972 v43.7599801128678 c0,2.3082187312281914 1.588436789287281,4.231734340585019 3.5841650630072004,4.231734340585019 h24.844780550390816 c1.9549991252766545,0 3.5841650630072004,-1.8754277191229058 3.5841650630072004,-4.231734340585019 v-80.7395677027528 l-28.469674761841283,33.61343527351054 C106.00724447547948,150.1820377099134 104.82609917062477,151.28805918529358 103.56349556888365,152.249816989972 z" id="svg_5" fill="#f5f5f5"/>
		<path d="M177.56835829029367,65.64352667868087 l-29.610090918252663,34.95989620006032 v95.4063742240986 c0,2.3082187312281914 1.588436789287281,4.231734340585019 3.5841650630072004,4.231734340585019 h24.844780550390816 c1.9549991252766545,0 3.5841650630072004,-1.8754277191229058 3.5841650630072004,-4.231734340585019 v-127.72143646129328 c-0.8145829688652727,-0.8174941339766513 -1.4255201955142272,-1.538812487485461 -1.8735408283901276,-2.019691389824668 L177.56835829029367,65.64352667868087 z" id="svg_6" fill="#f5f5f5"/>
		<path d="M197.89220336348222,3.7063240573910656 c-1.1811453048546456,-1.4907245972515408 -2.9732278363582454,-2.2601308409942713 -5.254060149181009,-2.2601308409942713 c-0.2036457422163182,0 -0.4480206328759002,0 -0.6516663750922183,0 c-11.567078157886872,0.6251425730409683 -23.093427167330482,1.298373036315858 -34.66050532521735,1.9235156093568269 c-1.5477076408440178,0.0961757804678414 -3.665623359893727,0.1923515609356826 -5.335518446067536,2.1639550605264297 c-0.5294789297624276,0.6251425730409683 -0.9367704141950636,1.3464609265497784 -1.2626036017411726,2.2120429507603503 c-1.7106242346170724,4.3759980112867805 0.6923955235354821,7.213183535088099 1.8328116799468632,8.559644461637879 l2.8917695394717184,3.4623280968422874 c1.9957282737199185,2.404394511696033 4.0321856958831,4.808789023392066 6.068643118046281,7.165095644854178 l-69.8912187286404,82.56690753164177 l-31.40217344975626,-37.07576337035283 c-1.8735408283901276,-2.2120429507603503 -4.398748031872473,-3.4623280968422874 -7.086871829127871,-3.4623280968422874 c-2.6881237972554,0 -5.172601852294481,1.250285146081937 -7.046142680684608,3.4623280968422874 L4.265831664206898,121.76209458166628 c-3.909998250553309,4.616437462456384 -3.909998250553309,12.070060448714086 0,16.68649791117047 l1.8735408283901276,2.2120429507603503 c1.8735408283901276,2.2120429507603503 4.398748031872473,3.4623280968422874 7.086871829127871,3.4623280968422874 s5.172601852294481,-1.250285146081937 7.046142680684608,-3.4623280968422874 l32.868422793713755,-38.806927418773974 l31.40217344975626,37.07576337035283 c1.8735408283901276,2.2120429507603503 4.398748031872473,3.4623280968422874 7.086871829127871,3.4623280968422874 c2.6881237972554,0 5.172601852294481,-1.250285146081937 7.086871829127871,-3.4623280968422874 l78.8516313861584,-93.09815549287039 l8.919683509074735,10.483160070994705 c1.0589578595248546,1.250285146081937 2.525207203482345,2.981449194503081 4.765310367861845,2.981449194503081 c0.9367704141950636,0 1.8735408283901276,-0.2885273414035242 2.8510403910284543,-0.9136699144444926 c0.6516663750922183,-0.4327910121052856 1.2218744532979091,-0.9136699144444926 1.7106242346170724,-1.4907245972515408 c1.7513533830603367,-2.067779280058588 2.0771865706064454,-4.712613242924225 2.1586448674929732,-6.7803925229828135 c0.32583318754610935,-8.848171803041401 0.6923955235354821,-17.696343606082802 1.0589578595248546,-26.59260329935812 l0.5294789297624276,-13.320345594796024 C199.68428589498583,7.409091605402955 199.15480696522337,5.245136544876526 197.89220336348222,3.7063240573910656 z" id="svg_7" fill="#f5f5f5"/>
	</g>
</g><g id="svg_8">
</g><g id="svg_9">
</g><g id="svg_10">
</g><g id="svg_11">
</g><g id="svg_12">
</g><g id="svg_13">
</g><g id="svg_14">
</g><g id="svg_15">
</g><g id="svg_16">
</g><g id="svg_17">
</g><g id="svg_18">
</g><g id="svg_19">
</g><g id="svg_20">
</g><g id="svg_21">
</g><g id="svg_22">
</g></g></svg>