<svg xmlns="http://www.w3.org/2000/svg" xmlns:xlink="http://www.w3.org/1999/xlink" version="1.1" style="" xml:space="preserve" width="250" height="250"><rect id="backgroundrect" width="100%" height="100%" x="0" y="0" fill="none" stroke="none"/>
















<g class="currentLayer" style=""><title>Layer 1</title><g id="svg_1" class="" fill-opacity="1" fill="#f5f5f5">
	<g id="svg_2" fill="#f5f5f5">
		<path d="M18.24267364583371,198.21295176513092 v47.85403743982315 c0,2.9112722396850583 1.998376625776291,5.337332439422608 4.509157514572144,5.337332439422608 h31.256660044193268 c2.4595404624938966,0 4.509157514572144,-2.36540869474411 4.509157514572144,-5.337332439422608 v-84.18428893089295 l-22.699508851766584,26.868616712093353 C31.0015397950208,194.39190695054432 24.85268863878606,197.66708822018998 18.24267364583371,198.21295176513092 z" id="svg_3" fill="#f5f5f5"/>
		<path d="M74.09473831496595,161.27618522412675 v84.79080398082733 c0,2.9112722396850583 1.998376625776291,5.337332439422608 4.509157514572144,5.337332439422608 h31.256660044193268 c2.4595404624938966,0 4.509157514572144,-2.36540869474411 4.509157514572144,-5.337332439422608 v-49.91618860960006 c-7.122419255971908,-0.18195451498031623 -13.78367467522621,-3.5177872896194455 -18.80523645281792,-9.46163477897644 L74.09473831496595,161.27618522412675 z" id="svg_4" fill="#f5f5f5"/>
		<path d="M129.94680298409818,190.87411966092486 v55.192869544029236 c0,2.9112722396850583 1.998376625776291,5.337332439422608 4.509157514572144,5.337332439422608 h31.256660044193268 c2.4595404624938966,0 4.509157514572144,-2.36540869474411 4.509157514572144,-5.337332439422608 v-101.83387688398362 l-35.81705798506737,42.39540199041367 C133.02122856221555,188.26610494620698 131.53525619945881,189.6610895610561 129.94680298409818,190.87411966092486 z" id="svg_5" fill="#f5f5f5"/>
		<path d="M223.05065757475253,81.64075916774172 l-37.25178992152214,44.093644130229954 v120.33258590698243 c0,2.9112722396850583 1.998376625776291,5.337332439422608 4.509157514572144,5.337332439422608 h31.256660044193268 c2.4595404624938966,0 4.509157514572144,-2.36540869474411 4.509157514572144,-5.337332439422608 v-161.09039726257325 c-1.0248085260391235,-1.0310755848884583 -1.7934149205684662,-1.940848159790039 -2.357059609889984,-2.5473632097244265 L223.05065757475253,81.64075916774172 z" id="svg_6" fill="#f5f5f5"/>
		<path d="M248.6196302994287,3.5216207361926473 c-1.4859723627567292,-1.8801966547966005 -3.740551120042801,-2.85062073469162 -6.610014992952347,-2.85062073469162 c-0.2562021315097809,0 -0.563644689321518,0 -0.8198468208312989,0 c-14.552281069755553,0.7884695649147034 -29.053321713209154,1.6375906348228455 -43.6056027829647,2.426060199737549 c-1.9471361994743346,0.12130300998687744 -4.611638367176056,0.2426060199737549 -6.712495845556259,2.7293177247047424 c-0.6661255419254303,0.7884695649147034 -1.178529804944992,1.6982421398162841 -1.5884532153606414,2.789969229698181 c-2.1520979046821593,5.519286954402923 0.8710872471332551,9.097725749015808 2.305819183588028,10.795967888832093 l3.6380702674388883,4.366908359527588 c2.510780888795853,3.032575249671936 5.072802203893661,6.065150499343872 7.63482351899147,9.037074244022369 l-87.9285715341568,104.13863407373428 l-39.50636867880821,-46.76231034994125 c-2.357059609889984,-2.789969229698181 -5.533966040611268,-4.366908359527588 -8.915834176540374,-4.366908359527588 c-3.3818681359291074,0 -6.507534140348434,1.5769391298294069 -8.864593750238418,4.366908359527588 L5.022643659929018,152.4210654950847 c-4.919080924987793,5.822544479370117 -4.919080924987793,15.22352775335312 0,21.046072232723237 l2.357059609889984,2.789969229698181 c2.357059609889984,2.789969229698181 5.533966040611268,4.366908359527588 8.915834176540374,4.366908359527588 s6.507534140348434,-1.5769391298294069 8.864593750238418,-4.366908359527588 l41.35102402567863,-48.94576452970505 l39.50636867880821,46.76231034994125 c2.357059609889984,2.789969229698181 5.533966040611268,4.366908359527588 8.915834176540374,4.366908359527588 c3.3818681359291074,0 6.507534140348434,-1.5769391298294069 8.915834176540374,-4.366908359527588 l99.20146532058716,-117.42131366729735 l11.221653360128402,13.222028088569642 c1.3322510838508606,1.5769391298294069 3.176906430721283,3.760393309593201 5.995129877328872,3.760393309593201 c1.178529804944992,0 2.357059609889984,-0.36390902996063246 3.5868298411369324,-1.1523785948753356 c0.8198468208312989,-0.5458635449409485 1.5372127890586853,-1.1523785948753356 2.1520979046821593,-1.8801966547966005 c2.2033383309841157,-2.6080147147178647 2.6132617413997647,-5.943847489356995 2.7157425940036775,-8.55186220407486 c0.40992341041564945,-11.159876918792724 0.8710872471332551,-22.31975383758545 1.3322510838508606,-33.54028226137161 l0.6661255419254303,-16.800466883182526 C250.87420905671476,8.191786620687427 250.2080835147893,5.462468895982684 248.6196302994287,3.5216207361926473 z" id="svg_7" fill="#f5f5f5"/>
	</g>
</g><g id="svg_8">
</g><g id="svg_9">
</g><g id="svg_10">
</g><g id="svg_11">
</g><g id="svg_12">
</g><g id="svg_13">
</g><g id="svg_14">
</g><g id="svg_15">
</g><g id="svg_16">
</g><g id="svg_17">
</g><g id="svg_18">
</g><g id="svg_19">
</g><g id="svg_20">
</g><g id="svg_21">
</g><g id="svg_22">
</g></g></svg>